<svg xmlns="http://www.w3.org/2000/svg" xmlns:xlink="http://www.w3.org/1999/xlink" viewBox="0 0 350.04 86.7"><defs><style>.cls-1{isolation:isolate;}.cls-2{fill:url(#Degradado_sin_nombre_12);}.cls-3{opacity:0.72;}.cls-4{opacity:0.7;mix-blend-mode:overlay;fill:url(#linear-gradient);}.cls-5{fill:#01a59c;}.cls-6{fill:#fff;}.cls-7{fill:#07685f;}.cls-8{fill:#575756;}</style><linearGradient id="Degradado_sin_nombre_12" x1="28.91" y1="31.43" x2="116.12" y2="88.62" gradientUnits="userSpaceOnUse"><stop offset="0.14" stop-color="#01a59c"/><stop offset="0.49" stop-color="#01816c"/></linearGradient><linearGradient id="linear-gradient" x1="74.24" y1="70.29" x2="63.37" y2="52.56" gradientUnits="userSpaceOnUse"><stop offset="0"/><stop offset="0.26" stop-color="#515151"/><stop offset="0.53" stop-color="#9b9b9b"/><stop offset="0.75" stop-color="#d1d1d1"/><stop offset="0.91" stop-color="#f2f2f2"/><stop offset="1" stop-color="#fff"/></linearGradient></defs><g class="cls-1"><g id="Capa_2" data-name="Capa 2"><g id="Capa_1-2" data-name="Capa 1"><path class="cls-2" d="M107.64,37.57,49.25.94A6.84,6.84,0,0,0,39,6.94v5.91H24.18a2.66,2.66,0,0,0-2.69,2.28A2.56,2.56,0,0,0,24,18H68.16a5.06,5.06,0,0,1,5,5.51,5.24,5.24,0,0,1-5.3,4.6H56.33a5,5,0,0,0-5,4.36,4.84,4.84,0,0,0,4.82,5.32H67.9a5.24,5.24,0,0,1,5.3,4.6,5.06,5.06,0,0,1-5,5.51h-12a4.83,4.83,0,0,0-4.83,4.83V60.3a7,7,0,0,1-7,7H24.51a3,3,0,0,0-3,2.72,2.85,2.85,0,0,0,2.86,3H39v6.78a6.84,6.84,0,0,0,10.26,6l58.39-36.64A6.82,6.82,0,0,0,107.64,37.57Z"/><g class="cls-3"><path class="cls-4" d="M110.82,43.27c-1,2.67-11.61,7.95-23.6,1.11s-18.89-6.62-18.89-6.62h0a5.22,5.22,0,0,1,4.91,4.5,5.06,5.06,0,0,1-5,5.58H56.12a4.82,4.82,0,0,0-4.82,4.83v7.25A7.34,7.34,0,0,1,44,67.26H24.36a2.87,2.87,0,1,0,0,5.73H39v6.78a6.84,6.84,0,0,0,10.26,6l58.39-36.64A6.73,6.73,0,0,0,110.82,43.27Z"/></g><rect class="cls-5" x="25.15" y="56.88" width="14.23" height="5.1" rx="1.18"/><rect class="cls-5" x="11.28" y="56.88" width="9.67" height="5.1" rx="1.18"/><rect class="cls-5" y="45.87" width="9.67" height="5.1" rx="1.18"/><rect class="cls-5" x="13.87" y="45.87" width="25.51" height="5.1" rx="1.18"/><rect class="cls-5" x="5.59" y="34.86" width="33.79" height="5.1" rx="1.18"/><rect class="cls-5" x="13.87" y="23.85" width="25.51" height="5.1" rx="1.18"/><path class="cls-6" d="M68.32,37.76a20.62,20.62,0,0,1,5.75.46,39.94,39.94,0,0,1,5.58,1.6A54.21,54.21,0,0,1,85,42.1c.87.41,1.71.9,2.56,1.35s1.63.86,2.47,1.23a24.65,24.65,0,0,0,10.66,2.23,21.08,21.08,0,0,0,5.45-.86,14,14,0,0,0,2.58-1,5.24,5.24,0,0,0,2.13-1.77A5,5,0,0,1,109,45.49,14.69,14.69,0,0,1,106.46,47a18.92,18.92,0,0,1-5.69,1.5,21.75,21.75,0,0,1-5.92-.22,24.63,24.63,0,0,1-5.66-1.76c-.9-.41-1.78-.88-2.62-1.36l-2.46-1.37c-1.65-.91-3.34-1.73-5-2.53s-3.46-1.49-5.25-2.09A28.42,28.42,0,0,0,68.32,37.76Z"/><path class="cls-7" d="M72.22,20a5,5,0,0,1,.94,3.73,5.26,5.26,0,0,1-5.29,4.3H56.32a5,5,0,0,0-4.92,3.77A4.83,4.83,0,0,0,54,37.22a4.77,4.77,0,0,1-.79-2.82,5.07,5.07,0,0,1,5.17-4.68H69.85a5.27,5.27,0,0,0,5.3-4.3A5.08,5.08,0,0,0,72.22,20Z"/><path class="cls-7" d="M51.29,52.68v3.25h0c0-3.5,4.76-6.34,8.26-6.34H70.14a5.07,5.07,0,0,0,5-5.59,5,5,0,0,0-2.82-3.93,4.68,4.68,0,0,1,.83,2.2,5.05,5.05,0,0,1-5,5.58h-12A4.83,4.83,0,0,0,51.29,52.68Z"/><path class="cls-5" d="M153.63,45h-5.29V32.21l-8.27,9.92-8-9.79V45H126.8V22.28h3.89l9.45,11.55,9.63-11.55h3.86Z"/><path class="cls-5" d="M156.23,22.28h5.29V45h-5.29Z"/><path class="cls-5" d="M177.84,31h9.44v5.25h-9.44V45h-5.29V22.28h19.24v5.29H177.84Z"/><path class="cls-5" d="M212.79,45l-2.08-4.35H198.45L196.37,45H190.5l11-22.65v0h6.33v0L218.63,45Zm-8.15-17.1L201,35.39h7.2Z"/><path class="cls-5" d="M240.17,38.18l2.34,4.73A20.91,20.91,0,0,1,233.29,45c-8.95,0-16-5-16-11.33s7-11.35,16-11.35a20.91,20.91,0,0,1,9.22,2l-2.34,4.74a15.7,15.7,0,0,0-6.88-1.49c-5.06,0-10.67,2.46-10.67,6.06s5.61,6.07,10.67,6.07A15.71,15.71,0,0,0,240.17,38.18Z"/><path class="cls-5" d="M267.4,27.57H259V45h-5.29V27.57h-8.56V22.28H267.4Z"/><path class="cls-5" d="M292.67,33.76c0,3.38,0,11.2-11.35,11.2S270,37.14,270,33.76V22.28h5.29V33.76c0,1.66.1,3.47.85,4.45s2.49,1.49,5.19,1.49c5.8,0,6.06-2,6.06-5.94V22.28h5.29Z"/><path class="cls-5" d="M315.19,45c-4.22,0-8.66-5.16-11.22-5.16h-3.41V45h-5.29V22.31h9.86c7.92,0,12.07,4.25,12.07,8.76a8.11,8.11,0,0,1-4.8,7.43c.65,1.14,4.06,1.91,5.23.78C320.68,40.45,319.41,45,315.19,45Zm-3.24-14c0-2.34-2.4-3.47-6.82-3.47h-4.57v7h4.57C309.55,34.57,312,33.41,312,31.07Z"/><path class="cls-5" d="M344.2,45l-2.08-4.35H329.86L327.78,45h-5.87l11-22.65v0h6.33v0L350,45Zm-8.14-17.1-3.64,7.5h7.21Z"/><path class="cls-8" d="M203.12,57c0,2.95-2.68,5.66-7.36,5.66H192.4V66H189V51.39h6.35C200.44,51.39,203.12,54.08,203.12,57Zm-3.39,0c0-1.36-1.54-2.24-4.39-2.24H192.4v4.5h3.36C198.19,59.29,199.73,58.39,199.73,57Z"/><path class="cls-8" d="M220.33,57h6.08v3.38h-6.08v2.22h8.94V66H216.92V51.37h12.39v3.4h-9Z"/><path class="cls-8" d="M256.37,66c-2.72,0-5.58-3.33-7.23-3.33h-2.2V66h-3.41V51.39h6.36c5.1,0,7.77,2.74,7.77,5.64a5.24,5.24,0,0,1-3.09,4.79c.42.73,2.61,1.23,3.36.5C259.9,63.07,259.08,66,256.37,66Zm-2.09-9c0-1.5-1.55-2.24-4.39-2.24h-2.95v4.5h2.95C252.73,59.29,254.28,58.54,254.28,57Z"/><path class="cls-8" d="M287.85,58.77c0,2.17,0,7.21-7.31,7.21s-7.3-5-7.3-7.21v-7.4h3.41v7.4a5.19,5.19,0,0,0,.54,2.86c.48.63,1.61,1,3.35,1,3.74,0,3.9-1.25,3.9-3.82v-7.4h3.41Z"/><polygon class="cls-8" points="213.76 60.21 215.41 60.21 217.24 57.33 214.5 57.33 213.76 60.21"/></g></g></g></svg>