<svg xmlns="http://www.w3.org/2000/svg" viewBox="0 0 223.24 43.74"><defs><style>.cls-1{fill:#fff;}</style></defs><g id="Capa_2" data-name="Capa 2"><g id="Capa_1-2" data-name="Capa 1"><path class="cls-1" d="M26.83,22.68H21.54V9.93l-8.27,9.93-8-9.8V22.68H0V0H3.89l9.44,11.55L23,0h3.86Z"/><path class="cls-1" d="M29.43,0h5.29V22.74H29.43Z"/><path class="cls-1" d="M51,8.73h9.44V14H51v8.76H45.75V0H65V5.29H51Z"/><path class="cls-1" d="M86,22.71l-2.08-4.35H71.65l-2.08,4.35H63.7L74.69.07V0H81v0L91.83,22.71ZM77.84,5.61l-3.63,7.5h7.2Z"/><path class="cls-1" d="M113.37,15.9l2.34,4.74a20.94,20.94,0,0,1-9.22,2c-8.95,0-16-5-16-11.32S97.54,0,106.49,0a20.94,20.94,0,0,1,9.22,2l-2.34,4.74a15.7,15.7,0,0,0-6.88-1.49c-5.06,0-10.67,2.46-10.67,6.07s5.61,6.06,10.67,6.06A15.71,15.71,0,0,0,113.37,15.9Z"/><path class="cls-1" d="M140.6,5.29h-8.44V22.74h-5.29V5.29h-8.56V0H140.6Z"/><path class="cls-1" d="M165.87,11.49c0,3.37,0,11.19-11.35,11.19s-11.33-7.82-11.33-11.19V0h5.29V11.49c0,1.65.1,3.47.85,4.44s2.49,1.49,5.19,1.49c5.8,0,6.06-1.94,6.06-5.93V0h5.29Z"/><path class="cls-1" d="M188.39,22.74c-4.22,0-8.66-5.15-11.22-5.15h-3.41v5.15h-5.29V0h9.86c7.92,0,12.07,4.25,12.07,8.76a8.11,8.11,0,0,1-4.8,7.43c.65,1.14,4.06,1.92,5.23.78C193.88,18.17,192.61,22.74,188.39,22.74ZM185.15,8.79c0-2.33-2.4-3.47-6.82-3.47h-4.57v7h4.57C182.75,12.3,185.15,11.13,185.15,8.79Z"/><path class="cls-1" d="M217.4,22.71l-2.08-4.35H203.06L201,22.71h-5.87l11-22.64V0h6.33v0l10.8,22.64Zm-8.14-17.1-3.64,7.5h7.21Z"/><path class="cls-1" d="M76.32,34.75c0,3-2.68,5.67-7.36,5.67H65.6v3.32H62.19V29.11h6.35C73.64,29.11,76.32,31.81,76.32,34.75Zm-3.39,0c0-1.35-1.54-2.23-4.39-2.23H65.6V37H69C71.39,37,72.93,36.11,72.93,34.75Z"/><path class="cls-1" d="M93.53,34.71h6.08V38.1H93.53v2.21h8.94V43.7H90.12V29.09h12.39V32.5h-9Z"/><path class="cls-1" d="M129.57,43.74c-2.72,0-5.58-3.32-7.23-3.32h-2.2v3.32h-3.41V29.11h6.36c5.1,0,7.77,2.74,7.77,5.64a5.22,5.22,0,0,1-3.09,4.79c.42.73,2.61,1.23,3.36.5C133.1,40.79,132.28,43.74,129.57,43.74Zm-2.09-9c0-1.5-1.55-2.23-4.39-2.23h-3V37h3C125.93,37,127.48,36.26,127.48,34.75Z"/><path class="cls-1" d="M161.05,36.49c0,2.17,0,7.21-7.31,7.21s-7.3-5-7.3-7.21v-7.4h3.41v7.4a5.19,5.19,0,0,0,.54,2.86c.48.63,1.61,1,3.35,1,3.74,0,3.9-1.25,3.9-3.82v-7.4h3.41Z"/><polygon class="cls-1" points="91.96 35.44 93.61 35.44 95.44 32.56 92.69 32.56 91.96 35.44"/></g></g></svg>