<svg xmlns="http://www.w3.org/2000/svg" xmlns:xlink="http://www.w3.org/1999/xlink" viewBox="0 0 349.17 86.7"><defs><style>.cls-1{isolation:isolate;}.cls-2{fill:#fff;}.cls-3{opacity:0.42;mix-blend-mode:multiply;fill:url(#Degradado_sin_nombre_21);}.cls-4{fill:#01a59c;}.cls-5{fill:#07685f;}</style><linearGradient id="Degradado_sin_nombre_21" x1="81.68" y1="83.87" x2="64.31" y2="53.82" gradientUnits="userSpaceOnUse"><stop offset="0.6" stop-color="#04665c"/><stop offset="0.71" stop-color="#52958f"/><stop offset="0.81" stop-color="#9bc2be"/><stop offset="0.9" stop-color="#d1e3e1"/><stop offset="0.96" stop-color="#f2f7f7"/><stop offset="1" stop-color="#fff"/></linearGradient></defs><g class="cls-1"><g id="Capa_2" data-name="Capa 2"><g id="Capa_1-2" data-name="Capa 1"><path class="cls-2" d="M107.64,37.57,49.25.94A6.84,6.84,0,0,0,39,6.94v5.91H24.18a2.66,2.66,0,0,0-2.69,2.28A2.56,2.56,0,0,0,24,18H68.16a5.06,5.06,0,0,1,5,5.51,5.24,5.24,0,0,1-5.3,4.6H56.33a5,5,0,0,0-5,4.36,4.84,4.84,0,0,0,4.82,5.32H67.9a5.24,5.24,0,0,1,5.3,4.6,5.06,5.06,0,0,1-5,5.51h-12a4.83,4.83,0,0,0-4.83,4.83V60.3a7,7,0,0,1-7,7H24.51a3,3,0,0,0-3,2.72,2.85,2.85,0,0,0,2.86,3H39v6.78a6.84,6.84,0,0,0,10.26,6l58.39-36.64A6.82,6.82,0,0,0,107.64,37.57Z"/><path class="cls-3" d="M87.25,44.35c-12-6.85-18.89-6.63-18.89-6.63l0,0a5.22,5.22,0,0,1,4.91,4.5,5.06,5.06,0,0,1-5,5.58h-12a4.83,4.83,0,0,0-4.83,4.83v7.24A7.34,7.34,0,0,1,44,67.23H24.38a2.87,2.87,0,1,0,0,5.73H39v6.77a6.84,6.84,0,0,0,10.26,6l58.4-36.63a6.76,6.76,0,0,0,3.16-5.86C109.86,45.9,99.23,51.19,87.25,44.35Z"/><rect class="cls-2" x="25.15" y="56.88" width="14.23" height="5.1" rx="1.18"/><rect class="cls-2" x="11.28" y="56.88" width="9.67" height="5.1" rx="1.18"/><rect class="cls-2" y="45.87" width="9.67" height="5.1" rx="1.18"/><rect class="cls-2" x="13.87" y="45.87" width="25.51" height="5.1" rx="1.18"/><rect class="cls-2" x="5.59" y="34.86" width="33.79" height="5.1" rx="1.18"/><rect class="cls-2" x="13.87" y="23.85" width="25.51" height="5.1" rx="1.18"/><path class="cls-4" d="M68.32,37.76a20.62,20.62,0,0,1,5.75.46,39.94,39.94,0,0,1,5.58,1.6A54.21,54.21,0,0,1,85,42.1c.87.41,1.71.9,2.56,1.35s1.63.86,2.47,1.23a24.65,24.65,0,0,0,10.66,2.23,21.08,21.08,0,0,0,5.45-.86,14,14,0,0,0,2.58-1,5.24,5.24,0,0,0,2.13-1.77A5,5,0,0,1,109,45.49,14.69,14.69,0,0,1,106.46,47a18.92,18.92,0,0,1-5.69,1.5,21.75,21.75,0,0,1-5.92-.22,24.63,24.63,0,0,1-5.66-1.76c-.9-.41-1.78-.88-2.62-1.36l-2.46-1.37c-1.65-.91-3.34-1.73-5-2.53s-3.46-1.49-5.25-2.09A28.42,28.42,0,0,0,68.32,37.76Z"/><path class="cls-5" d="M72.22,20a5,5,0,0,1,.94,3.73,5.26,5.26,0,0,1-5.29,4.3H56.32a5,5,0,0,0-4.92,3.77A4.83,4.83,0,0,0,54,37.22a4.77,4.77,0,0,1-.79-2.82,5.07,5.07,0,0,1,5.17-4.68H69.85a5.27,5.27,0,0,0,5.3-4.3A5.08,5.08,0,0,0,72.22,20Z"/><path class="cls-5" d="M51.29,52.68v3.25h0c0-3.5,4.76-6.34,8.26-6.34H70.14a5.07,5.07,0,0,0,5-5.59,5,5,0,0,0-2.82-3.93,4.68,4.68,0,0,1,.83,2.2,5.05,5.05,0,0,1-5,5.58h-12A4.83,4.83,0,0,0,51.29,52.68Z"/><path class="cls-2" d="M152.76,45.68h-5.29V32.93l-8.28,9.93-8-9.8V45.68h-5.28V23h3.89l9.44,11.55L148.9,23h3.86Z"/><path class="cls-2" d="M155.36,23h5.28V45.75h-5.28Z"/><path class="cls-2" d="M177,31.73h9.44V37H177v8.76h-5.29V23h19.24v5.29H177Z"/><path class="cls-2" d="M211.91,45.71l-2.08-4.34H197.57l-2.08,4.34h-5.87l11-22.64v0H207v0l10.8,22.64Zm-8.14-17.09-3.64,7.49h7.21Z"/><path class="cls-2" d="M239.3,38.9l2.33,4.74a20.87,20.87,0,0,1-9.21,2c-9,0-16-5-16-11.32s7-11.36,16-11.36a20.87,20.87,0,0,1,9.21,2.05l-2.33,4.73a15.7,15.7,0,0,0-6.88-1.49c-5.06,0-10.68,2.47-10.68,6.07s5.62,6.07,10.68,6.07A15.57,15.57,0,0,0,239.3,38.9Z"/><path class="cls-2" d="M266.52,28.29h-8.44V45.75H252.8V28.29h-8.57V23h22.29Z"/><path class="cls-2" d="M291.8,34.49c0,3.37,0,11.19-11.36,11.19s-11.32-7.82-11.32-11.19V23h5.29V34.49c0,1.65.09,3.47.84,4.44s2.5,1.5,5.19,1.5c5.81,0,6.07-2,6.07-5.94V23h5.29Z"/><path class="cls-2" d="M314.32,45.75c-4.22,0-8.67-5.16-11.23-5.16h-3.41v5.16H294.4V23h9.86c7.92,0,12.07,4.25,12.07,8.76a8.13,8.13,0,0,1-4.8,7.43c.65,1.13,4.05,1.91,5.22.77C319.8,41.17,318.53,45.75,314.32,45.75ZM311.07,31.8c0-2.34-2.4-3.48-6.81-3.48h-4.58v7h4.58C308.67,35.3,311.07,34.13,311.07,31.8Z"/><path class="cls-2" d="M343.33,45.71l-2.08-4.34H329l-2.08,4.34H321l11-22.64v0h6.33v0l10.81,22.64Zm-8.15-17.09-3.63,7.49h7.2Z"/><path class="cls-2" d="M202.24,57.76c0,2.94-2.67,5.66-7.35,5.66h-3.37v3.32h-3.41V52.11h6.36C199.57,52.11,202.24,54.81,202.24,57.76Zm-3.38,0c0-1.36-1.55-2.24-4.39-2.24h-2.95V60h3.37C197.31,60,198.86,59.11,198.86,57.76Z"/><path class="cls-2" d="M219.45,57.71h6.08V61.1h-6.08v2.22h9V66.7H216V52.09h12.4V55.5h-9Z"/><path class="cls-2" d="M255.49,66.74c-2.72,0-5.58-3.32-7.23-3.32h-2.19v3.32h-3.41V52.11H249c5.1,0,7.78,2.74,7.78,5.65a5.22,5.22,0,0,1-3.1,4.78c.42.73,2.62,1.24,3.37.5C259,63.8,258.21,66.74,255.49,66.74Zm-2.09-9c0-1.51-1.55-2.24-4.39-2.24h-2.94V60H249C251.85,60,253.4,59.26,253.4,57.76Z"/><path class="cls-2" d="M287,59.49c0,2.17,0,7.21-7.32,7.21s-7.29-5-7.29-7.21v-7.4h3.4v7.4a5.15,5.15,0,0,0,.55,2.86c.48.63,1.61,1,3.34,1,3.74,0,3.91-1.26,3.91-3.83v-7.4H287Z"/><polygon class="cls-2" points="217.88 58.44 219.53 58.44 221.37 55.56 218.62 55.56 217.88 58.44"/></g></g></g></svg>